# xmcd
#
# Track frame offsets: 
#        183
#        18708
#        41633
#        70283
#        86020
#        106733
#        126933
#        144083
#        161133
#        166583
#
# Disc length: 2684 seconds
#
# Revision: 1
# Processed by: cddbd v1.5.1PL0 Copyright (c) Steve Scherf et al.
# Submitted via: ExactAudioCopy v0.95a4
#
DISCID=7e0a7a0a
DTITLE=Eric Clapton - Silver and Gold Collection [CD1] (Eric Clapton 
DTITLE=Unplugged)
DYEAR=1900
DGENRE=
TTITLE0=Before You Accuse Me
TTITLE1=Lonely Stranger
TTITLE2=Running on Faith
TTITLE3=Nobody Knows You
TTITLE4=Layla
TTITLE5=Tears in Heaven
TTITLE6=Circus Left Town
TTITLE7=Alberta
TTITLE8=Rollin' and Tumblin
TTITLE9=Old Love
EXTD=
EXTT0=
EXTT1=
EXTT2=
EXTT3=
EXTT4=
EXTT5=
EXTT6=
EXTT7=
EXTT8=
EXTT9=
PLAYORDER=
